<svg width="444" height="88" viewBox="0 0 444 88" fill="none" xmlns="http://www.w3.org/2000/svg">
<path d="M4 56C4 71.464 16.536 84 32 84C47.464 84 60 71.464 60 56V32C60 16.536 47.464 4 32 4C16.536 4 4 16.536 4 32V56Z" stroke="#625C3B" stroke-width="8" stroke-linecap="round" stroke-linejoin="round"/>
<path d="M31 8H32C45.2548 8 56 18.7452 56 32V36H35C32.7909 36 31 34.2091 31 32V8Z" fill="#625C3B"/>
<path d="M106.102 44.3047H103.664V55.3438C103.664 56.7969 103.344 57.8672 102.703 58.5547C102.062 59.2422 101.227 59.5859 100.195 59.5859C99.0859 59.5859 98.2266 59.2266 97.6172 58.5078C97.0078 57.7891 96.7031 56.7344 96.7031 55.3438V28.9062C96.7031 27.4062 97.0391 26.3203 97.7109 25.6484C98.3828 24.9766 99.4688 24.6406 100.969 24.6406H112.289C113.852 24.6406 115.188 24.7109 116.297 24.8516C117.406 24.9766 118.406 25.2422 119.297 25.6484C120.375 26.1016 121.328 26.75 122.156 27.5938C122.984 28.4375 123.609 29.4219 124.031 30.5469C124.469 31.6562 124.688 32.8359 124.688 34.0859C124.688 36.6484 123.961 38.6953 122.508 40.2266C121.07 41.7578 118.883 42.8438 115.945 43.4844C117.18 44.1406 118.359 45.1094 119.484 46.3906C120.609 47.6719 121.609 49.0391 122.484 50.4922C123.375 51.9297 124.062 53.2344 124.547 54.4062C125.047 55.5625 125.297 56.3594 125.297 56.7969C125.297 57.25 125.148 57.7031 124.852 58.1562C124.57 58.5938 124.18 58.9375 123.68 59.1875C123.18 59.4531 122.602 59.5859 121.945 59.5859C121.164 59.5859 120.508 59.3984 119.977 59.0234C119.445 58.6641 118.984 58.2031 118.594 57.6406C118.219 57.0781 117.703 56.25 117.047 55.1562L114.258 50.5156C113.258 48.8125 112.359 47.5156 111.562 46.625C110.781 45.7344 109.984 45.125 109.172 44.7969C108.359 44.4688 107.336 44.3047 106.102 44.3047ZM110.086 29.8672H103.664V39.3125H109.898C111.57 39.3125 112.977 39.1719 114.117 38.8906C115.258 38.5938 116.125 38.1016 116.719 37.4141C117.328 36.7109 117.633 35.75 117.633 34.5312C117.633 33.5781 117.391 32.7422 116.906 32.0234C116.422 31.2891 115.75 30.7422 114.891 30.3828C114.078 30.0391 112.477 29.8672 110.086 29.8672ZM135.33 37.2031V55.6953C135.33 56.9766 135.025 57.9453 134.416 58.6016C133.807 59.2578 133.033 59.5859 132.096 59.5859C131.158 59.5859 130.393 59.25 129.799 58.5781C129.221 57.9062 128.932 56.9453 128.932 55.6953V37.3906C128.932 36.125 129.221 35.1719 129.799 34.5312C130.393 33.8906 131.158 33.5703 132.096 33.5703C133.033 33.5703 133.807 33.8906 134.416 34.5312C135.025 35.1719 135.33 36.0625 135.33 37.2031ZM132.166 30.5938C131.275 30.5938 130.51 30.3203 129.869 29.7734C129.244 29.2266 128.932 28.4531 128.932 27.4531C128.932 26.5469 129.252 25.8047 129.893 25.2266C130.549 24.6328 131.307 24.3359 132.166 24.3359C132.994 24.3359 133.728 24.6016 134.369 25.1328C135.01 25.6641 135.33 26.4375 135.33 27.4531C135.33 28.4375 135.018 29.2109 134.393 29.7734C133.768 30.3203 133.025 30.5938 132.166 30.5938ZM163.574 38.2578V56.8438C163.574 58.9688 163.347 60.7969 162.894 62.3281C162.441 63.8594 161.715 65.125 160.715 66.125C159.715 67.125 158.402 67.8672 156.777 68.3516C155.168 68.8359 153.16 69.0781 150.754 69.0781C148.551 69.0781 146.582 68.7656 144.847 68.1406C143.113 67.5312 141.777 66.7344 140.84 65.75C139.902 64.7812 139.433 63.7812 139.433 62.75C139.433 61.9688 139.699 61.3281 140.23 60.8281C140.762 60.3438 141.402 60.1016 142.152 60.1016C143.09 60.1016 143.91 60.5156 144.613 61.3438C144.957 61.7656 145.308 62.1875 145.668 62.6094C146.043 63.0469 146.449 63.4141 146.887 63.7109C147.34 64.0234 147.879 64.25 148.504 64.3906C149.129 64.5469 149.847 64.625 150.66 64.625C152.316 64.625 153.597 64.3906 154.504 63.9219C155.426 63.4688 156.066 62.8281 156.426 62C156.801 61.1719 157.019 60.2812 157.082 59.3281C157.144 58.3906 157.191 56.875 157.222 54.7812C156.238 56.1562 155.097 57.2031 153.801 57.9219C152.519 58.6406 150.988 59 149.207 59C147.066 59 145.191 58.4531 143.582 57.3594C141.988 56.2656 140.762 54.7344 139.902 52.7656C139.043 50.7969 138.613 48.5234 138.613 45.9453C138.613 44.0234 138.871 42.2891 139.387 40.7422C139.918 39.1953 140.668 37.8906 141.637 36.8281C142.605 35.7656 143.722 34.9688 144.988 34.4375C146.254 33.8906 147.644 33.6172 149.16 33.6172C150.972 33.6172 152.543 33.9688 153.871 34.6719C155.199 35.3594 156.433 36.4453 157.574 37.9297V37.0625C157.574 35.9531 157.847 35.0938 158.394 34.4844C158.941 33.875 159.644 33.5703 160.504 33.5703C161.738 33.5703 162.558 33.9766 162.965 34.7891C163.371 35.5859 163.574 36.7422 163.574 38.2578ZM145.035 46.3672C145.035 48.9609 145.597 50.9219 146.722 52.25C147.863 53.5781 149.332 54.2422 151.129 54.2422C152.191 54.2422 153.191 53.9609 154.129 53.3984C155.082 52.8203 155.855 51.9609 156.449 50.8203C157.043 49.6641 157.34 48.2656 157.34 46.625C157.34 44.0156 156.762 41.9844 155.605 40.5312C154.465 39.0781 152.957 38.3516 151.082 38.3516C149.254 38.3516 147.785 39.0469 146.676 40.4375C145.582 41.8281 145.035 43.8047 145.035 46.3672ZM174.381 27.9453V37.4375C175.193 36.5 175.982 35.7578 176.748 35.2109C177.529 34.6641 178.388 34.2578 179.326 33.9922C180.263 33.7109 181.271 33.5703 182.349 33.5703C183.974 33.5703 185.412 33.9141 186.662 34.6016C187.927 35.2891 188.92 36.2891 189.638 37.6016C190.092 38.3672 190.396 39.2266 190.552 40.1797C190.709 41.1172 190.787 42.2031 190.787 43.4375V55.6953C190.787 56.9766 190.49 57.9453 189.896 58.6016C189.318 59.2578 188.545 59.5859 187.576 59.5859C185.467 59.5859 184.412 58.2891 184.412 55.6953V44.8906C184.412 42.8438 184.107 41.2734 183.498 40.1797C182.888 39.0703 181.732 38.5156 180.029 38.5156C178.888 38.5156 177.857 38.8438 176.935 39.5C176.029 40.1406 175.349 41.0234 174.896 42.1484C174.552 43.1016 174.381 44.7969 174.381 47.2344V55.6953C174.381 56.9609 174.092 57.9297 173.513 58.6016C172.951 59.2578 172.162 59.5859 171.146 59.5859C169.037 59.5859 167.982 58.2891 167.982 55.6953V27.9453C167.982 26.6484 168.256 25.6797 168.802 25.0391C169.365 24.3828 170.146 24.0547 171.146 24.0547C172.162 24.0547 172.951 24.3828 173.513 25.0391C174.092 25.6953 174.381 26.6641 174.381 27.9453ZM195.57 34.1328H196.273V30.2891C196.273 29.2578 196.297 28.4531 196.343 27.875C196.406 27.2812 196.562 26.7734 196.812 26.3516C197.062 25.9141 197.422 25.5625 197.89 25.2969C198.359 25.0156 198.882 24.875 199.461 24.875C200.273 24.875 201.007 25.1797 201.664 25.7891C202.101 26.1953 202.375 26.6953 202.484 27.2891C202.609 27.8672 202.672 28.6953 202.672 29.7734V34.1328H205.015C205.922 34.1328 206.609 34.3516 207.078 34.7891C207.562 35.2109 207.804 35.7578 207.804 36.4297C207.804 37.2891 207.461 37.8906 206.773 38.2344C206.101 38.5781 205.132 38.75 203.867 38.75H202.672V50.5156C202.672 51.5156 202.703 52.2891 202.765 52.8359C202.843 53.3672 203.031 53.8047 203.328 54.1484C203.64 54.4766 204.14 54.6406 204.828 54.6406C205.203 54.6406 205.711 54.5781 206.351 54.4531C206.992 54.3125 207.492 54.2422 207.851 54.2422C208.367 54.2422 208.828 54.4531 209.234 54.875C209.656 55.2812 209.867 55.7891 209.867 56.3984C209.867 57.4297 209.304 58.2188 208.179 58.7656C207.054 59.3125 205.437 59.5859 203.328 59.5859C201.328 59.5859 199.812 59.25 198.781 58.5781C197.75 57.9062 197.07 56.9766 196.742 55.7891C196.429 54.6016 196.273 53.0156 196.273 51.0312V38.75H195.429C194.507 38.75 193.804 38.5312 193.32 38.0938C192.836 37.6562 192.593 37.1016 192.593 36.4297C192.593 35.7578 192.843 35.2109 193.343 34.7891C193.859 34.3516 194.601 34.1328 195.57 34.1328ZM250.113 48.1484C250.113 49.2422 249.839 50.4297 249.293 51.7109C248.761 52.9766 247.918 54.2266 246.761 55.4609C245.605 56.6797 244.128 57.6719 242.332 58.4375C240.535 59.2031 238.441 59.5859 236.05 59.5859C234.238 59.5859 232.589 59.4141 231.105 59.0703C229.621 58.7266 228.269 58.1953 227.05 57.4766C225.847 56.7422 224.738 55.7812 223.722 54.5938C222.816 53.5156 222.043 52.3125 221.402 50.9844C220.761 49.6406 220.277 48.2109 219.949 46.6953C219.636 45.1797 219.48 43.5703 219.48 41.8672C219.48 39.1016 219.878 36.625 220.675 34.4375C221.488 32.25 222.644 30.3828 224.144 28.8359C225.644 27.2734 227.402 26.0859 229.418 25.2734C231.433 24.4609 233.582 24.0547 235.863 24.0547C238.644 24.0547 241.121 24.6094 243.293 25.7188C245.464 26.8281 247.128 28.2031 248.285 29.8438C249.441 31.4688 250.019 33.0078 250.019 34.4609C250.019 35.2578 249.738 35.9609 249.175 36.5703C248.613 37.1797 247.933 37.4844 247.136 37.4844C246.246 37.4844 245.574 37.2734 245.121 36.8516C244.683 36.4297 244.191 35.7031 243.644 34.6719C242.738 32.9688 241.668 31.6953 240.433 30.8516C239.214 30.0078 237.707 29.5859 235.91 29.5859C233.05 29.5859 230.769 30.6719 229.066 32.8438C227.378 35.0156 226.535 38.1016 226.535 42.1016C226.535 44.7734 226.91 47 227.66 48.7812C228.41 50.5469 229.472 51.8672 230.847 52.7422C232.222 53.6172 233.832 54.0547 235.675 54.0547C237.675 54.0547 239.363 53.5625 240.738 52.5781C242.128 51.5781 243.175 50.1172 243.878 48.1953C244.175 47.2891 244.543 46.5547 244.98 45.9922C245.418 45.4141 246.121 45.125 247.089 45.125C247.918 45.125 248.628 45.4141 249.222 45.9922C249.816 46.5703 250.113 47.2891 250.113 48.1484ZM254.005 55.6953V27.9453C254.005 26.6641 254.287 25.6953 254.849 25.0391C255.427 24.3828 256.201 24.0547 257.169 24.0547C258.138 24.0547 258.919 24.3828 259.513 25.0391C260.107 25.6797 260.404 26.6484 260.404 27.9453V55.6953C260.404 56.9922 260.099 57.9688 259.49 58.625C258.896 59.2656 258.122 59.5859 257.169 59.5859C256.232 59.5859 255.466 59.25 254.872 58.5781C254.294 57.9062 254.005 56.9453 254.005 55.6953ZM271.515 37.2031V55.6953C271.515 56.9766 271.21 57.9453 270.601 58.6016C269.992 59.2578 269.218 59.5859 268.281 59.5859C267.343 59.5859 266.577 59.25 265.984 58.5781C265.406 57.9062 265.117 56.9453 265.117 55.6953V37.3906C265.117 36.125 265.406 35.1719 265.984 34.5312C266.577 33.8906 267.343 33.5703 268.281 33.5703C269.218 33.5703 269.992 33.8906 270.601 34.5312C271.21 35.1719 271.515 36.0625 271.515 37.2031ZM268.351 30.5938C267.46 30.5938 266.695 30.3203 266.054 29.7734C265.429 29.2266 265.117 28.4531 265.117 27.4531C265.117 26.5469 265.437 25.8047 266.077 25.2266C266.734 24.6328 267.492 24.3359 268.351 24.3359C269.179 24.3359 269.913 24.6016 270.554 25.1328C271.195 25.6641 271.515 26.4375 271.515 27.4531C271.515 28.4375 271.202 29.2109 270.577 29.7734C269.952 30.3203 269.21 30.5938 268.351 30.5938ZM299.173 51.6641C299.173 52.4609 298.931 53.3125 298.447 54.2188C297.978 55.125 297.251 55.9922 296.267 56.8203C295.298 57.6328 294.072 58.2891 292.587 58.7891C291.103 59.2891 289.431 59.5391 287.572 59.5391C283.618 59.5391 280.533 58.3906 278.314 56.0938C276.095 53.7812 274.986 50.6875 274.986 46.8125C274.986 44.1875 275.493 41.8672 276.509 39.8516C277.525 37.8359 278.993 36.2812 280.915 35.1875C282.837 34.0781 285.134 33.5234 287.806 33.5234C289.462 33.5234 290.978 33.7656 292.353 34.25C293.743 34.7344 294.915 35.3594 295.868 36.125C296.837 36.8906 297.572 37.7109 298.072 38.5859C298.587 39.4453 298.845 40.25 298.845 41C298.845 41.7656 298.556 42.4141 297.978 42.9453C297.415 43.4766 296.728 43.7422 295.915 43.7422C295.384 43.7422 294.939 43.6094 294.579 43.3438C294.236 43.0625 293.845 42.6172 293.408 42.0078C292.626 40.8203 291.806 39.9297 290.947 39.3359C290.103 38.7422 289.025 38.4453 287.712 38.4453C285.822 38.4453 284.298 39.1875 283.142 40.6719C281.986 42.1406 281.408 44.1562 281.408 46.7188C281.408 47.9219 281.556 49.0312 281.853 50.0469C282.15 51.0469 282.579 51.9062 283.142 52.625C283.704 53.3281 284.384 53.8672 285.181 54.2422C285.978 54.6016 286.853 54.7812 287.806 54.7812C289.087 54.7812 290.181 54.4844 291.087 53.8906C292.009 53.2969 292.822 52.3906 293.525 51.1719C293.915 50.4531 294.337 49.8906 294.79 49.4844C295.243 49.0781 295.798 48.875 296.454 48.875C297.236 48.875 297.884 49.1719 298.4 49.7656C298.915 50.3594 299.173 50.9922 299.173 51.6641ZM316.964 56.6562L311.316 47.375L307.847 50.6562V55.7422C307.847 56.9766 307.519 57.9297 306.863 58.6016C306.222 59.2578 305.48 59.5859 304.636 59.5859C303.652 59.5859 302.878 59.2578 302.316 58.6016C301.753 57.9453 301.472 56.9766 301.472 55.6953V28.4141C301.472 26.9922 301.745 25.9141 302.292 25.1797C302.839 24.4297 303.62 24.0547 304.636 24.0547C305.62 24.0547 306.402 24.3906 306.98 25.0625C307.558 25.7344 307.847 26.7266 307.847 28.0391V43.5547L315.042 36.0078C315.933 35.0703 316.613 34.4297 317.081 34.0859C317.55 33.7422 318.12 33.5703 318.792 33.5703C319.589 33.5703 320.253 33.8281 320.784 34.3438C321.316 34.8438 321.581 35.4766 321.581 36.2422C321.581 37.1797 320.714 38.4297 318.98 39.9922L315.581 43.1094L322.144 53.4219C322.628 54.1875 322.972 54.7734 323.175 55.1797C323.394 55.5703 323.503 55.9453 323.503 56.3047C323.503 57.3203 323.222 58.125 322.659 58.7188C322.113 59.2969 321.386 59.5859 320.48 59.5859C319.698 59.5859 319.097 59.375 318.675 58.9531C318.253 58.5312 317.683 57.7656 316.964 56.6562ZM343.968 28.2734V53.2812H358.077C359.202 53.2812 360.062 53.5547 360.655 54.1016C361.265 54.6484 361.569 55.3359 361.569 56.1641C361.569 57.0078 361.273 57.6953 360.679 58.2266C360.085 58.7422 359.218 59 358.077 59H341.273C339.757 59 338.663 58.6641 337.991 57.9922C337.335 57.3203 337.007 56.2344 337.007 54.7344V28.2734C337.007 26.8672 337.319 25.8125 337.944 25.1094C338.585 24.4062 339.421 24.0547 340.452 24.0547C341.499 24.0547 342.343 24.4062 342.983 25.1094C343.64 25.7969 343.968 26.8516 343.968 28.2734ZM387.751 46.5781C387.751 48.4844 387.454 50.2422 386.86 51.8516C386.267 53.4609 385.407 54.8438 384.282 56C383.157 57.1562 381.813 58.0469 380.251 58.6719C378.688 59.2812 376.931 59.5859 374.978 59.5859C373.04 59.5859 371.298 59.2734 369.751 58.6484C368.204 58.0234 366.86 57.1328 365.72 55.9766C364.595 54.8047 363.735 53.4297 363.142 51.8516C362.563 50.2578 362.274 48.5 362.274 46.5781C362.274 44.6406 362.571 42.8672 363.165 41.2578C363.759 39.6484 364.61 38.2734 365.72 37.1328C366.829 35.9922 368.173 35.1172 369.751 34.5078C371.329 33.8828 373.071 33.5703 374.978 33.5703C376.915 33.5703 378.673 33.8828 380.251 34.5078C381.829 35.1328 383.181 36.0234 384.306 37.1797C385.431 38.3359 386.282 39.7109 386.86 41.3047C387.454 42.8984 387.751 44.6562 387.751 46.5781ZM381.329 46.5781C381.329 43.9688 380.751 41.9375 379.595 40.4844C378.454 39.0312 376.915 38.3047 374.978 38.3047C373.728 38.3047 372.626 38.6328 371.673 39.2891C370.72 39.9297 369.985 40.8828 369.47 42.1484C368.954 43.4141 368.696 44.8906 368.696 46.5781C368.696 48.25 368.946 49.7109 369.446 50.9609C369.962 52.2109 370.688 53.1719 371.626 53.8438C372.579 54.5 373.696 54.8281 374.978 54.8281C376.915 54.8281 378.454 54.1016 379.595 52.6484C380.751 51.1797 381.329 49.1562 381.329 46.5781ZM414.425 38.2578V56.8438C414.425 58.9688 414.198 60.7969 413.745 62.3281C413.292 63.8594 412.565 65.125 411.565 66.125C410.565 67.125 409.253 67.8672 407.628 68.3516C406.018 68.8359 404.011 69.0781 401.604 69.0781C399.401 69.0781 397.432 68.7656 395.698 68.1406C393.964 67.5312 392.628 66.7344 391.69 65.75C390.753 64.7812 390.284 63.7812 390.284 62.75C390.284 61.9688 390.55 61.3281 391.081 60.8281C391.612 60.3438 392.253 60.1016 393.003 60.1016C393.94 60.1016 394.761 60.5156 395.464 61.3438C395.807 61.7656 396.159 62.1875 396.518 62.6094C396.893 63.0469 397.3 63.4141 397.737 63.7109C398.19 64.0234 398.729 64.25 399.354 64.3906C399.979 64.5469 400.698 64.625 401.511 64.625C403.167 64.625 404.448 64.3906 405.354 63.9219C406.276 63.4688 406.917 62.8281 407.276 62C407.651 61.1719 407.87 60.2812 407.932 59.3281C407.995 58.3906 408.042 56.875 408.073 54.7812C407.089 56.1562 405.948 57.2031 404.651 57.9219C403.37 58.6406 401.839 59 400.057 59C397.917 59 396.042 58.4531 394.432 57.3594C392.839 56.2656 391.612 54.7344 390.753 52.7656C389.893 50.7969 389.464 48.5234 389.464 45.9453C389.464 44.0234 389.722 42.2891 390.237 40.7422C390.768 39.1953 391.518 37.8906 392.487 36.8281C393.456 35.7656 394.573 34.9688 395.839 34.4375C397.104 33.8906 398.495 33.6172 400.011 33.6172C401.823 33.6172 403.393 33.9688 404.722 34.6719C406.05 35.3594 407.284 36.4453 408.425 37.9297V37.0625C408.425 35.9531 408.698 35.0938 409.245 34.4844C409.792 33.875 410.495 33.5703 411.354 33.5703C412.589 33.5703 413.409 33.9766 413.815 34.7891C414.222 35.5859 414.425 36.7422 414.425 38.2578ZM395.886 46.3672C395.886 48.9609 396.448 50.9219 397.573 52.25C398.714 53.5781 400.182 54.2422 401.979 54.2422C403.042 54.2422 404.042 53.9609 404.979 53.3984C405.932 52.8203 406.706 51.9609 407.3 50.8203C407.893 49.6641 408.19 48.2656 408.19 46.625C408.19 44.0156 407.612 41.9844 406.456 40.5312C405.315 39.0781 403.807 38.3516 401.932 38.3516C400.104 38.3516 398.636 39.0469 397.526 40.4375C396.432 41.8281 395.886 43.8047 395.886 46.3672ZM441.755 46.5781C441.755 48.4844 441.458 50.2422 440.864 51.8516C440.27 53.4609 439.411 54.8438 438.286 56C437.161 57.1562 435.817 58.0469 434.255 58.6719C432.692 59.2812 430.934 59.5859 428.981 59.5859C427.044 59.5859 425.302 59.2734 423.755 58.6484C422.208 58.0234 420.864 57.1328 419.723 55.9766C418.598 54.8047 417.739 53.4297 417.145 51.8516C416.567 50.2578 416.278 48.5 416.278 46.5781C416.278 44.6406 416.575 42.8672 417.169 41.2578C417.763 39.6484 418.614 38.2734 419.723 37.1328C420.833 35.9922 422.177 35.1172 423.755 34.5078C425.333 33.8828 427.075 33.5703 428.981 33.5703C430.919 33.5703 432.677 33.8828 434.255 34.5078C435.833 35.1328 437.184 36.0234 438.309 37.1797C439.434 38.3359 440.286 39.7109 440.864 41.3047C441.458 42.8984 441.755 44.6562 441.755 46.5781ZM435.333 46.5781C435.333 43.9688 434.755 41.9375 433.598 40.4844C432.458 39.0312 430.919 38.3047 428.981 38.3047C427.731 38.3047 426.63 38.6328 425.677 39.2891C424.723 39.9297 423.989 40.8828 423.473 42.1484C422.958 43.4141 422.7 44.8906 422.7 46.5781C422.7 48.25 422.95 49.7109 423.45 50.9609C423.966 52.2109 424.692 53.1719 425.63 53.8438C426.583 54.5 427.7 54.8281 428.981 54.8281C430.919 54.8281 432.458 54.1016 433.598 52.6484C434.755 51.1797 435.333 49.1562 435.333 46.5781Z" fill="#625C3B"/>
</svg>
